<?xml version="1.0" encoding="iso-8859-1"?>
<!-- Generator: Adobe Illustrator 18.0.0, SVG Export Plug-In . SVG Version: 6.00 Build 0)  -->
<!DOCTYPE svg PUBLIC "-//W3C//DTD SVG 1.1//EN" "http://www.w3.org/Graphics/SVG/1.1/DTD/svg11.dtd">
<svg version="1.1" id="Capa_1" xmlns="http://www.w3.org/2000/svg" xmlns:xlink="http://www.w3.org/1999/xlink" x="0px" y="0px"
	 viewBox="0 0 135.001 135.001" style="enable-background:new 0 0 135.001 135.001;" xml:space="preserve">
<g>
	<circle style="fill:#2EBCEE;" cx="67.501" cy="67.501" r="67.5"/>
	<g>
		<g>
			<path style="fill:#FEC820;" d="M99.502,68.2c0.074,17.877-14.357,32.426-32.235,32.498c-17.877,0.072-32.427-14.359-32.5-32.234
				c-0.072-17.879,14.36-32.428,32.236-32.5C84.88,35.89,99.43,50.323,99.502,68.2z"/>
			<circle style="fill:#FF6F00;" cx="67.134" cy="68.331" r="26.262"/>
			<circle style="fill:#FCCF4E;" cx="67.134" cy="68.33" r="22.785"/>
		</g>
		<g>
			<g>
				<path style="fill:#FEB60E;" d="M66.96,35.965C49.104,36.062,34.695,50.6,34.767,68.464
					c0.073,17.771,14.457,32.134,32.192,32.228V35.965z"/>
			</g>
			<g>
				<path style="fill:#FF5000;" d="M66.96,42.069c-14.471,0.098-26.147,11.887-26.087,26.369
					c0.059,14.409,11.712,26.056,26.087,26.148V42.069z"/>
			</g>
			<g>
				<path style="fill:#FBBF31;" d="M66.96,45.548c-12.544,0.096-22.661,10.318-22.61,22.875
					c0.053,12.496,10.149,22.594,22.61,22.686V45.548z"/>
			</g>
		</g>
		<g>
			<path style="fill:#FF6F00;" d="M75.698,71.286c0,1.699-0.614,3.066-1.844,4.098s-2.95,1.648-5.163,1.852v3.287h-2.197V77.3
				c-2.608-0.053-4.896-0.514-6.863-1.379v-4.234c0.93,0.461,2.05,0.867,3.359,1.219c1.31,0.354,2.478,0.563,3.504,0.627V68.56
				l-1.074-0.416c-2.117-0.834-3.616-1.74-4.498-2.719s-1.323-2.188-1.323-3.631c0-1.551,0.606-2.826,1.82-3.826
				c1.213-0.998,2.904-1.605,5.075-1.818v-2.455h2.197v2.391c2.447,0.107,4.66,0.598,6.639,1.475l-1.508,3.752
				c-1.668-0.684-3.378-1.1-5.131-1.25v4.73c2.084,0.801,3.567,1.496,4.449,2.084s1.529,1.234,1.94,1.941
				C75.492,69.522,75.698,70.347,75.698,71.286z M64.425,61.794c0,0.471,0.162,0.857,0.488,1.162s0.853,0.617,1.58,0.938v-3.768
				C65.115,60.329,64.425,60.884,64.425,61.794z M70.872,71.526c0-0.449-0.183-0.828-0.546-1.139
				c-0.363-0.309-0.908-0.631-1.635-0.961v3.992C70.144,73.173,70.872,72.542,70.872,71.526z"/>
		</g>
	</g>
</g>
<g>
</g>
<g>
</g>
<g>
</g>
<g>
</g>
<g>
</g>
<g>
</g>
<g>
</g>
<g>
</g>
<g>
</g>
<g>
</g>
<g>
</g>
<g>
</g>
<g>
</g>
<g>
</g>
<g>
</g>
</svg>
