<?xml version="1.0" encoding="UTF-8"?>
<!DOCTYPE svg PUBLIC "-//W3C//DTD SVG 1.1//EN" "http://www.w3.org/Graphics/SVG/1.1/DTD/svg11.dtd">
<svg xmlns="http://www.w3.org/2000/svg" version="1.1" width="320px" height="180px" style="shape-rendering:geometricPrecision; text-rendering:geometricPrecision; image-rendering:optimizeQuality; fill-rule:evenodd; clip-rule:evenodd" xmlns:xlink="http://www.w3.org/1999/xlink">
<g><path style="opacity:1" fill="#1d1d20" d="M -0.5,-0.5 C 106.167,-0.5 212.833,-0.5 319.5,-0.5C 319.5,59.5 319.5,119.5 319.5,179.5C 212.833,179.5 106.167,179.5 -0.5,179.5C -0.5,119.5 -0.5,59.5 -0.5,-0.5 Z"/></g>
<g><path style="opacity:1" fill="#f64601" d="M 172.5,47.5 C 180.741,46.002 187.907,48.002 194,53.5C 194.781,54.9437 194.614,56.277 193.5,57.5C 172.939,59.9462 154.939,68.1128 139.5,82C 123.683,96.1361 110.516,112.303 100,130.5C 97.5965,134.635 95.7632,138.968 94.5,143.5C 91.5352,143.27 90.2019,141.603 90.5,138.5C 101.954,107.774 120.621,82.274 146.5,62C 154.497,55.8381 163.163,51.0047 172.5,47.5 Z"/></g>
<g><path style="opacity:1" fill="#f54601" d="M 96.5,53.5 C 99.6136,54.0913 102.114,55.758 104,58.5C 110.998,69.1036 112.331,80.4369 108,92.5C 106.667,95.1667 105.333,95.1667 104,92.5C 100.855,79.6312 98.355,66.6312 96.5,53.5 Z"/></g>
<g><path style="opacity:1" fill="#f3f3f4" d="M 35.5,121.5 C 32.6146,121.806 29.9479,121.473 27.5,120.5C 29.909,105.455 32.5757,90.4549 35.5,75.5C 41.4717,74.5261 47.4717,74.3594 53.5,75C 63.1889,78.3917 66.0222,84.8917 62,94.5C 58.9261,100.291 54.0928,103.457 47.5,104C 44.1832,104.498 40.8499,104.665 37.5,104.5C 37.2543,110.229 36.5876,115.896 35.5,121.5 Z"/></g>
<g><path style="opacity:1" fill="#212123" d="M 42.5,81.5 C 54.5964,79.9004 57.9298,84.4004 52.5,95C 48.404,97.5107 44.0707,98.0107 39.5,96.5C 40.6084,91.5152 41.6084,86.5152 42.5,81.5 Z"/></g>
<g><path style="opacity:1" fill="#f6f6f6" d="M 89.5,121.5 C 87.1667,121.5 84.8333,121.5 82.5,121.5C 82.6633,119.143 82.4966,116.81 82,114.5C 81.2828,115.044 80.7828,115.711 80.5,116.5C 76.9845,122.077 71.9845,123.91 65.5,122C 61.5107,119.187 59.8441,115.354 60.5,110.5C 60.9865,99.5189 66.3199,92.0189 76.5,88C 82.1949,87.3742 87.8615,87.5409 93.5,88.5C 91.4182,99.4066 90.0848,110.407 89.5,121.5 Z"/></g>
<g><path style="opacity:1" fill="#f3f3f3" d="M 145.5,87.5 C 159.659,85.4982 166.159,91.4982 165,105.5C 161.68,118.914 153.18,124.414 139.5,122C 130.671,114.94 129.171,106.44 135,96.5C 138.053,92.9449 141.553,89.9449 145.5,87.5 Z"/></g>
<g><path style="opacity:1" fill="#7f7f80" d="M 172.5,88.5 C 174.948,87.5269 177.615,87.1936 180.5,87.5C 180.737,88.791 180.404,89.791 179.5,90.5C 177.721,88.6565 175.388,87.9898 172.5,88.5 Z"/></g>
<g><path style="opacity:1" fill="#f2f2f2" d="M 196.5,119.5 C 194.2,121.202 191.533,121.868 188.5,121.5C 188.5,120.5 188.5,119.5 188.5,118.5C 190.21,110.913 191.043,103.246 191,95.5C 185.352,93.7497 181.352,95.7497 179,101.5C 177.112,108.047 175.778,114.714 175,121.5C 172.281,122.444 169.448,122.777 166.5,122.5C 168.886,111.236 170.886,99.9028 172.5,88.5C 175.388,87.9898 177.721,88.6565 179.5,90.5C 179.351,91.552 179.517,92.552 180,93.5C 184.638,87.4631 190.471,85.9631 197.5,89C 200.36,92.6814 201.193,96.8481 200,101.5C 198.344,107.426 197.177,113.426 196.5,119.5 Z"/></g>
<g><path style="opacity:1" fill="#f5f5f5" d="M 217.5,87.5 C 228.538,85.3931 233.705,89.7265 233,100.5C 231.332,104.165 228.499,106.332 224.5,107C 220.179,107.499 215.846,107.666 211.5,107.5C 211.245,111.493 212.911,114.326 216.5,116C 220.997,116.729 225.33,116.229 229.5,114.5C 229.5,116.5 229.5,118.5 229.5,120.5C 223.659,122.398 217.659,122.898 211.5,122C 203.719,116.649 201.552,109.482 205,100.5C 208.05,94.9523 212.217,90.6189 217.5,87.5 Z"/></g>
<g><path style="opacity:1" fill="#f2f2f2" d="M 249.5,87.5 C 256.205,85.9843 261.371,87.9843 265,93.5C 266.124,100.406 263.291,104.906 256.5,107C 252.21,107.923 247.877,108.423 243.5,108.5C 243.269,111.785 244.603,114.285 247.5,116C 251.997,116.729 256.33,116.229 260.5,114.5C 261.128,118.158 259.794,120.658 256.5,122C 238.367,124.858 231.867,117.358 237,99.5C 239.769,93.8947 243.936,89.8947 249.5,87.5 Z"/></g>
<g><path style="opacity:1" fill="#f0f0f0" d="M 271.5,87.5 C 273.833,87.5 276.167,87.5 278.5,87.5C 278.338,89.5273 278.505,91.5273 279,93.5C 281.407,89.5473 284.907,87.5473 289.5,87.5C 289.663,89.8568 289.497,92.1902 289,94.5C 283.936,95.2283 280.27,97.895 278,102.5C 276.284,108.748 274.95,115.081 274,121.5C 271.281,122.444 268.448,122.777 265.5,122.5C 267.875,110.87 269.875,99.2029 271.5,87.5 Z"/></g>
<g><path style="opacity:1" fill="#676769" d="M 296.5,86.5 C 300.487,87.2105 301.987,89.5438 301,93.5C 297.187,96.5886 294.687,95.7552 293.5,91C 293.557,88.7911 294.557,87.2911 296.5,86.5 Z"/></g>
<g><path style="opacity:1" fill="#1f1f21" d="M 78.5,93.5 C 80.5,93.5 82.5,93.5 84.5,93.5C 84.0264,98.9793 82.8597,104.313 81,109.5C 79.2769,112.725 76.7769,115.058 73.5,116.5C 71.2339,116.069 69.7339,114.736 69,112.5C 67.9363,103.96 71.103,97.6271 78.5,93.5 Z"/></g>
<g><path style="opacity:1" fill="#1f1f22" d="M 147.5,93.5 C 153.626,92.7215 156.626,95.3881 156.5,101.5C 156.845,109.188 153.511,114.188 146.5,116.5C 141.811,115.488 139.811,112.488 140.5,107.5C 140.708,101.751 143.041,97.0843 147.5,93.5 Z"/></g>
<g><path style="opacity:1" fill="#222225" d="M 218.5,93.5 C 220.527,93.3379 222.527,93.5045 224.5,94C 227.192,96.6324 226.859,98.9658 223.5,101C 220.183,101.498 216.85,101.665 213.5,101.5C 214.151,98.197 215.818,95.5303 218.5,93.5 Z"/></g>
<g><path style="opacity:1" fill="#1f1f22" d="M 249.5,93.5 C 251.527,93.3379 253.527,93.5045 255.5,94C 258.192,96.6324 257.859,98.9658 254.5,101C 243.784,103.152 242.117,100.652 249.5,93.5 Z"/></g>
<g><path style="opacity:1" fill="#89898b" d="M 27.5,120.5 C 29.9479,121.473 32.6146,121.806 35.5,121.5C 32.6447,122.803 29.6447,122.803 26.5,121.5C 26.6236,120.893 26.9569,120.56 27.5,120.5 Z"/></g>
<g><path style="opacity:1" fill="#99999b" d="M 89.5,121.5 C 87.0521,122.473 84.3854,122.806 81.5,122.5C 81.7947,120.265 81.4614,118.265 80.5,116.5C 80.7828,115.711 81.2828,115.044 82,114.5C 82.4966,116.81 82.6633,119.143 82.5,121.5C 84.8333,121.5 87.1667,121.5 89.5,121.5 Z"/></g>
<g><path style="opacity:1" fill="#8f8f91" d="M 188.5,118.5 C 188.5,119.5 188.5,120.5 188.5,121.5C 191.533,121.868 194.2,121.202 196.5,119.5C 196.5,120.5 196.5,121.5 196.5,122.5C 193.5,122.5 190.5,122.5 187.5,122.5C 187.232,120.901 187.566,119.568 188.5,118.5 Z"/></g>
</svg>
