<?xml version="1.0" encoding="UTF-8"?>
<!DOCTYPE svg PUBLIC "-//W3C//DTD SVG 1.1//EN" "http://www.w3.org/Graphics/SVG/1.1/DTD/svg11.dtd">
<svg xmlns="http://www.w3.org/2000/svg" version="1.1" width="320px" height="180px" style="shape-rendering:geometricPrecision; text-rendering:geometricPrecision; image-rendering:optimizeQuality; fill-rule:evenodd; clip-rule:evenodd" xmlns:xlink="http://www.w3.org/1999/xlink">
<g><path style="opacity:1" fill="#862164" d="M -0.5,-0.5 C 106.167,-0.5 212.833,-0.5 319.5,-0.5C 319.5,59.5 319.5,119.5 319.5,179.5C 212.833,179.5 106.167,179.5 -0.5,179.5C -0.5,119.5 -0.5,59.5 -0.5,-0.5 Z"/></g>
<g><path style="opacity:1" fill="#fbf8fa" d="M 198.5,38.5 C 205.88,38.0502 209.38,41.3835 209,48.5C 206.983,53.9242 203.15,55.7575 197.5,54C 192.1,48.4904 192.433,43.3237 198.5,38.5 Z"/></g>
<g><path style="opacity:1" fill="#fdfcfd" d="M 77.5,42.5 C 84.175,42.3337 90.8417,42.5004 97.5,43C 101.285,43.3728 104.785,44.5395 108,46.5C 108.828,50.8713 108.661,55.2047 107.5,59.5C 99.0453,55.885 90.3787,55.0516 81.5,57C 79.0062,59.4231 79.0062,61.7564 81.5,64C 88.8152,64.912 95.8152,66.912 102.5,70C 113.83,81.7148 112.83,92.3815 99.5,102C 87.9431,104.994 76.2765,105.327 64.5,103C 63.5308,98.2633 63.1975,93.43 63.5,88.5C 70.9727,91.0396 78.6394,91.8729 86.5,91C 91.5325,89.1803 92.5325,86.1803 89.5,82C 80.6204,81.7994 72.7871,78.9661 66,73.5C 60.3175,63.6346 61.4841,54.8013 69.5,47C 72.0993,45.205 74.7659,43.705 77.5,42.5 Z"/></g>
<g><path style="opacity:1" fill="#fdfcfd" d="M 130.5,42.5 C 130.168,53.1874 130.501,63.8541 131.5,74.5C 132.107,74.3764 132.44,74.0431 132.5,73.5C 135.635,69.0486 138.302,64.3819 140.5,59.5C 146.926,58.88 152.926,59.5467 158.5,61.5C 155.999,68.67 152.332,75.17 147.5,81C 151.839,88.1905 155.506,95.6905 158.5,103.5C 151.833,104.833 145.167,104.833 138.5,103.5C 136.69,98.0655 134.69,92.7321 132.5,87.5C 132.44,86.9569 132.107,86.6236 131.5,86.5C 130.504,92.4632 130.171,98.4632 130.5,104.5C 125.167,104.5 119.833,104.5 114.5,104.5C 114.5,84.8333 114.5,65.1667 114.5,45.5C 119.835,44.4995 125.168,43.4995 130.5,42.5 Z"/></g>
<g><path style="opacity:1" fill="#dbbdd0" d="M 130.5,42.5 C 131.167,52.8333 131.833,63.1667 132.5,73.5C 132.44,74.0431 132.107,74.3764 131.5,74.5C 130.501,63.8541 130.168,53.1874 130.5,42.5 Z"/></g>
<g><path style="opacity:1" fill="#fefdfd" d="M 228.5,42.5 C 229.833,42.5 231.167,42.5 232.5,42.5C 232.5,63.1667 232.5,83.8333 232.5,104.5C 227.167,104.5 221.833,104.5 216.5,104.5C 216.5,84.5 216.5,64.5 216.5,44.5C 220.684,44.1491 224.684,43.4824 228.5,42.5 Z"/></g>
<g><path style="opacity:1" fill="#fcf9fb" d="M 239.5,102.5 C 240.178,83.2646 240.845,63.9313 241.5,44.5C 246.516,43.9418 251.516,43.2751 256.5,42.5C 256.5,63.1667 256.5,83.8333 256.5,104.5C 251.156,104.666 245.823,104.499 240.5,104C 239.944,103.617 239.611,103.117 239.5,102.5 Z"/></g>
<g><path style="opacity:1" fill="#b87ba3" d="M 241.5,44.5 C 240.845,63.9313 240.178,83.2646 239.5,102.5C 238.846,82.8045 239.512,63.4711 241.5,44.5 Z"/></g>
<g><path style="opacity:1" fill="#dab9ce" d="M 140.5,59.5 C 146.645,58.5098 152.978,58.1765 159.5,58.5C 159.737,59.791 159.404,60.791 158.5,61.5C 152.926,59.5467 146.926,58.88 140.5,59.5 Z"/></g>
<g><path style="opacity:1" fill="#fcfafb" d="M 176.5,58.5 C 180.5,58.5 184.5,58.5 188.5,58.5C 188.5,62.8333 188.5,67.1667 188.5,71.5C 183.044,71.0262 179.544,73.3595 178,78.5C 177.185,86.7457 177.352,94.9124 178.5,103C 173.019,104.449 167.352,104.949 161.5,104.5C 161.088,92.7707 161.588,81.1041 163,69.5C 166.236,64.0793 170.736,60.4127 176.5,58.5 Z"/></g>
<g><path style="opacity:1" fill="#fdfcfd" d="M 193.5,58.5 C 198.833,58.5 204.167,58.5 209.5,58.5C 209.5,73.8333 209.5,89.1667 209.5,104.5C 204.167,104.5 198.833,104.5 193.5,104.5C 193.5,89.1667 193.5,73.8333 193.5,58.5 Z"/></g>
<g><path style="opacity:1" fill="#dab9ce" d="M 132.5,87.5 C 131.833,93.1667 131.167,98.8333 130.5,104.5C 130.171,98.4632 130.504,92.4632 131.5,86.5C 132.107,86.6236 132.44,86.9569 132.5,87.5 Z"/></g>
<g><path style="opacity:1" fill="#fdfcfd" d="M 153.5,112.5 C 154.833,112.5 156.167,112.5 157.5,112.5C 157.187,115.247 157.52,117.914 158.5,120.5C 163.869,118.36 166.869,120.194 167.5,126C 166.567,133.739 162.234,136.572 154.5,134.5C 153.536,127.254 153.203,119.92 153.5,112.5 Z"/></g>
<g><path style="opacity:1" fill="#f8f4f6" d="M 202.5,112.5 C 204.167,112.5 205.833,112.5 207.5,112.5C 207.334,116.514 207.501,120.514 208,124.5C 209.483,120.335 212.316,118.835 216.5,120C 214.47,121.896 212.803,124.063 211.5,126.5C 213.043,129.086 214.709,131.586 216.5,134C 212.316,135.165 209.483,133.665 208,129.5C 207.506,131.134 207.34,132.801 207.5,134.5C 205.833,134.5 204.167,134.5 202.5,134.5C 202.5,127.167 202.5,119.833 202.5,112.5 Z"/></g>
<g><path style="opacity:1" fill="#d9b7cd" d="M 153.5,112.5 C 153.203,119.92 153.536,127.254 154.5,134.5C 153.178,131.232 152.511,127.565 152.5,123.5C 152.501,119.651 152.835,115.984 153.5,112.5 Z"/></g>
<g><path style="opacity:1" fill="#fcfafb" d="M 84.5,121.5 C 84.5,125.833 84.5,130.167 84.5,134.5C 83.1667,134.5 81.8333,134.5 80.5,134.5C 80.5,130.833 80.5,127.167 80.5,123.5C 79.1779,123.33 78.0113,123.663 77,124.5C 76.5017,127.817 76.335,131.15 76.5,134.5C 74.8333,134.5 73.1667,134.5 71.5,134.5C 71.5,130.833 71.5,127.167 71.5,123.5C 70.1779,123.33 69.0113,123.663 68,124.5C 67.5017,127.817 67.335,131.15 67.5,134.5C 66.1667,134.5 64.8333,134.5 63.5,134.5C 63.5,129.5 63.5,124.5 63.5,119.5C 65.451,119.227 66.951,119.893 68,121.5C 68.956,120.106 70.2894,119.439 72,119.5C 75,120.833 78,120.833 81,119.5C 82.6991,119.387 83.8658,120.053 84.5,121.5 Z"/></g>
<g><path style="opacity:1" fill="#f8f2f6" d="M 90.5,119.5 C 99.1584,118.327 102.992,121.994 102,130.5C 98.3353,135.578 94.1686,136.245 89.5,132.5C 88.2606,130.689 87.5939,128.689 87.5,126.5C 88.0567,123.954 89.0567,121.621 90.5,119.5 Z"/></g>
<g><path style="opacity:1" fill="#d4afc7" d="M 105.5,119.5 C 105.5,124.5 105.5,129.5 105.5,134.5C 106.833,134.5 108.167,134.5 109.5,134.5C 108.081,135.451 106.415,135.784 104.5,135.5C 104.179,129.974 104.512,124.64 105.5,119.5 Z"/></g>
<g><path style="opacity:1" fill="#f9f8f9" d="M 105.5,119.5 C 109.475,119.859 113.475,120.193 117.5,120.5C 118.493,125.12 118.827,129.786 118.5,134.5C 116.833,134.5 115.167,134.5 113.5,134.5C 113.5,130.833 113.5,127.167 113.5,123.5C 112.178,123.33 111.011,123.663 110,124.5C 109.502,127.817 109.335,131.15 109.5,134.5C 108.167,134.5 106.833,134.5 105.5,134.5C 105.5,129.5 105.5,124.5 105.5,119.5 Z"/></g>
<g><path style="opacity:1" fill="#f8f3f6" d="M 123.5,119.5 C 131.117,117.789 134.784,120.789 134.5,128.5C 131.482,128.335 128.482,128.502 125.5,129C 127.692,131.668 130.359,132.168 133.5,130.5C 134.731,131.651 134.731,132.817 133.5,134C 126.85,136.424 122.517,134.257 120.5,127.5C 120.727,124.478 121.727,121.811 123.5,119.5 Z"/></g>
<g><path style="opacity:1" fill="#f8f3f6" d="M 135.5,120.5 C 137.265,119.539 139.265,119.205 141.5,119.5C 141.162,122.157 141.829,124.49 143.5,126.5C 145.171,124.49 145.838,122.157 145.5,119.5C 147.167,119.5 148.833,119.5 150.5,119.5C 148.641,125.91 146.474,132.243 144,138.5C 140.921,141.425 138.421,141.092 136.5,137.5C 138.274,136.813 139.941,135.98 141.5,135C 139.594,130.035 137.594,125.202 135.5,120.5 Z"/></g>
<g><path style="opacity:1" fill="#faf6f8" d="M 172.5,119.5 C 179.067,118.097 182.733,120.597 183.5,127C 183.458,132.041 180.958,134.874 176,135.5C 169.826,133.295 167.826,128.961 170,122.5C 171.045,121.627 171.878,120.627 172.5,119.5 Z"/></g>
<g><path style="opacity:1" fill="#f9f5f8" d="M 189.5,119.5 C 198.532,119.021 201.699,123.021 199,131.5C 194.368,136.436 190.034,136.103 186,130.5C 184.663,125.872 185.83,122.205 189.5,119.5 Z"/></g>
<g><path style="opacity:1" fill="#f9f7f8" d="M 220.5,119.5 C 227.67,118.339 231.003,121.339 230.5,128.5C 227.753,128.187 225.086,128.52 222.5,129.5C 224.45,131.753 226.784,132.086 229.5,130.5C 230.731,131.651 230.731,132.817 229.5,134C 219.863,136.364 216.029,132.531 218,122.5C 219.045,121.627 219.878,120.627 220.5,119.5 Z"/></g>
<g><path style="opacity:1" fill="#fdfcfc" d="M 238.5,126.5 C 237.527,128.948 237.194,131.615 237.5,134.5C 236.167,134.5 234.833,134.5 233.5,134.5C 233.5,129.5 233.5,124.5 233.5,119.5C 235.492,119.328 237.158,119.995 238.5,121.5C 241.041,118.591 242.708,119.091 243.5,123C 241.569,123.902 239.903,125.069 238.5,126.5 Z"/></g>
<g><path style="opacity:1" fill="#f7f1f5" d="M 247.5,119.5 C 250.722,119.108 253.722,119.608 256.5,121C 255.953,121.925 255.287,122.758 254.5,123.5C 247.96,122.842 247.96,123.675 254.5,126C 257.07,128.718 257.07,131.385 254.5,134C 251.183,134.498 247.85,134.665 244.5,134.5C 244.34,132.801 244.506,131.134 245,129.5C 247.312,131.464 249.812,131.797 252.5,130.5C 250.631,129.376 248.631,128.543 246.5,128C 243.568,124.611 243.901,121.778 247.5,119.5 Z"/></g>
<g><path style="opacity:1" fill="#d2aac3" d="M 84.5,121.5 C 85.4861,125.97 85.8195,130.637 85.5,135.5C 83.5853,135.784 81.9187,135.451 80.5,134.5C 81.8333,134.5 83.1667,134.5 84.5,134.5C 84.5,130.167 84.5,125.833 84.5,121.5 Z"/></g>
<g><path style="opacity:1" fill="#882964" d="M 126.5,122.5 C 128.346,122.222 129.68,122.889 130.5,124.5C 128.833,125.833 127.167,125.833 125.5,124.5C 125.863,123.817 126.196,123.15 126.5,122.5 Z"/></g>
<g><path style="opacity:1" fill="#882965" d="M 222.5,122.5 C 224.346,122.222 225.68,122.889 226.5,124.5C 224.833,125.833 223.167,125.833 221.5,124.5C 221.863,123.817 222.196,123.15 222.5,122.5 Z"/></g>
<g><path style="opacity:1" fill="#8a2a67" d="M 92.5,123.5 C 94.1439,123.286 95.6439,123.62 97,124.5C 97.7581,126.769 97.5914,128.936 96.5,131C 95.2161,131.684 94.0495,131.517 93,130.5C 92.5034,128.19 92.3367,125.857 92.5,123.5 Z"/></g>
<g><path style="opacity:1" fill="#892b66" d="M 174.5,123.5 C 180.241,124.736 180.908,127.403 176.5,131.5C 173.426,129.471 172.76,126.804 174.5,123.5 Z"/></g>
<g><path style="opacity:1" fill="#862263" d="M 158.5,123.5 C 161.243,123.077 162.576,124.244 162.5,127C 162.252,130.082 160.585,131.582 157.5,131.5C 157.279,128.721 157.612,126.054 158.5,123.5 Z"/></g>
<g><path style="opacity:1" fill="#872664" d="M 192.5,122.5 C 196.488,125.462 196.488,128.462 192.5,131.5C 190.976,130.473 190.309,128.973 190.5,127C 190.759,125.213 191.425,123.713 192.5,122.5 Z"/></g>
<g><path style="opacity:1" fill="#d1a9c3" d="M 238.5,126.5 C 238.5,129.5 238.5,132.5 238.5,135.5C 236.585,135.784 234.919,135.451 233.5,134.5C 234.833,134.5 236.167,134.5 237.5,134.5C 237.194,131.615 237.527,128.948 238.5,126.5 Z"/></g>
</svg>
