<?xml version="1.0" encoding="UTF-8"?>
<!DOCTYPE svg PUBLIC "-//W3C//DTD SVG 1.1//EN" "http://www.w3.org/Graphics/SVG/1.1/DTD/svg11.dtd">
<svg xmlns="http://www.w3.org/2000/svg" version="1.1" width="320px" height="180px" style="shape-rendering:geometricPrecision; text-rendering:geometricPrecision; image-rendering:optimizeQuality; fill-rule:evenodd; clip-rule:evenodd" xmlns:xlink="http://www.w3.org/1999/xlink">
<g><path style="opacity:1" fill="#2cb0fe" d="M -0.5,-0.5 C 106.167,-0.5 212.833,-0.5 319.5,-0.5C 319.5,59.5 319.5,119.5 319.5,179.5C 212.833,179.5 106.167,179.5 -0.5,179.5C -0.5,119.5 -0.5,59.5 -0.5,-0.5 Z"/></g>
<g><path style="opacity:1" fill="#3fb3f6" d="M 108.5,72.5 C 102.932,75.073 99.5989,79.4064 98.5,85.5C 97.5269,87.9479 97.1936,90.6146 97.5,93.5C 96.2037,89.6315 96.2037,85.6315 97.5,81.5C 97.1924,80.6919 96.6924,80.0253 96,79.5C 94.9609,80.7101 93.7942,81.7101 92.5,82.5C 93.6298,80.6854 94.2964,78.6854 94.5,76.5C 96.1042,75.713 96.7709,74.3797 96.5,72.5C 97.2216,72.9175 97.7216,73.5842 98,74.5C 98.49,73.2068 98.6567,71.8734 98.5,70.5C 101.789,71.3739 105.123,72.0405 108.5,72.5 Z"/></g>
<g><path style="opacity:1" fill="#79c8f3" d="M 147.5,72.5 C 149.473,71.8373 151.639,71.5039 154,71.5C 156.61,71.5332 158.777,72.1999 160.5,73.5C 159.5,73.5 158.5,73.5 157.5,73.5C 154.375,72.5206 151.042,72.1872 147.5,72.5 Z"/></g>
<g><path style="opacity:1" fill="#34b1f9" d="M 266.5,75.5 C 266.5,75.8333 266.5,76.1667 266.5,76.5C 264.694,81.2537 262.694,85.9204 260.5,90.5C 259.11,87.9846 257.777,85.9846 256.5,84.5C 257.244,79.6601 255.578,75.9934 251.5,73.5C 251.5,73.1667 251.5,72.8333 251.5,72.5C 256.013,71.9736 260.346,71.6402 264.5,71.5C 264.387,72.8595 265.053,74.1928 266.5,75.5 Z"/></g>
<g><path style="opacity:1" fill="#ccf1fd" d="M 33.5,74.5 C 34.4408,76.0495 35.1075,77.7162 35.5,79.5C 33.2407,78.656 32.2407,76.9893 32.5,74.5C 27.5,74.5 22.5,74.5 17.5,74.5C 17.5,75.5 17.5,76.5 17.5,77.5C 17.1667,77.5 16.8333,77.5 16.5,77.5C 16.5,76.1667 16.5,74.8333 16.5,73.5C 22.358,73.1778 28.0247,73.5111 33.5,74.5 Z"/></g>
<g><path style="opacity:1" fill="#c0eefc" d="M 96.5,72.5 C 96.7709,74.3797 96.1042,75.713 94.5,76.5C 93.7893,74.1582 92.456,73.8249 90.5,75.5C 90.4142,74.5041 90.7476,73.6708 91.5,73C 93.1341,72.5065 94.8008,72.3398 96.5,72.5 Z"/></g>
<g><path style="opacity:1" fill="#66c0ef" d="M 146.5,72.5 C 145.564,73.9744 144.23,74.9744 142.5,75.5C 143.035,73.5544 144.368,72.5544 146.5,72.5 Z"/></g>
<g><path style="opacity:1" fill="#f8fdfe" d="M 157.5,73.5 C 158.5,73.5 159.5,73.5 160.5,73.5C 160.5,74.1667 160.833,74.5 161.5,74.5C 161.719,75.675 161.386,76.675 160.5,77.5C 159.583,76.8728 158.583,76.5394 157.5,76.5C 157.167,76.5 156.833,76.5 156.5,76.5C 153.359,75.6787 150.025,75.1787 146.5,75C 149.958,73.5845 153.625,73.0845 157.5,73.5 Z"/></g>
<g><path style="opacity:1" fill="#87cff9" d="M 270.5,75.5 C 269.778,75.0825 269.278,74.4158 269,73.5C 268.148,74.5707 267.315,75.5707 266.5,76.5C 266.5,76.1667 266.5,75.8333 266.5,75.5C 266.694,73.0882 268.027,72.0882 270.5,72.5C 270.5,73.5 270.5,74.5 270.5,75.5 Z"/></g>
<g><path style="opacity:1" fill="#f9fcfd" d="M 35.5,79.5 C 35.427,81.0269 36.0937,82.0269 37.5,82.5C 38.3382,82.8417 38.6716,83.5084 38.5,84.5C 37.6103,86.7819 37.4436,89.1152 38,91.5C 39,90.1667 40,90.1667 41,91.5C 41.4935,93.1341 41.6602,94.8008 41.5,96.5C 39.1339,97.862 37.1339,99.6953 35.5,102C 33.6698,102.182 32.0031,101.682 30.5,100.5C 29.4884,99.1283 28.4884,97.795 27.5,96.5C 27.2753,93.4542 25.942,91.1209 23.5,89.5C 22.5324,86.8997 21.1991,84.5664 19.5,82.5C 19.1075,80.7162 18.4408,79.0495 17.5,77.5C 17.5,76.5 17.5,75.5 17.5,74.5C 22.5,74.5 27.5,74.5 32.5,74.5C 32.2407,76.9893 33.2407,78.656 35.5,79.5 Z"/></g>
<g><path style="opacity:1" fill="#eafafd" d="M 108.5,72.5 C 118.422,70.5469 125.922,73.8802 131,82.5C 132.772,89.444 131.272,95.444 126.5,100.5C 124.435,101.857 122.435,103.19 120.5,104.5C 116.727,104.737 113.06,104.237 109.5,103C 113.389,101.839 117.389,100.839 121.5,100C 123.141,98.871 124.141,97.371 124.5,95.5C 124.5,94.8333 124.5,94.1667 124.5,93.5C 125.777,92.3064 126.444,90.6397 126.5,88.5C 124.932,79.4324 119.599,75.599 110.5,77C 109.944,77.3826 109.611,77.8826 109.5,78.5C 106.833,79.1667 105.167,80.8333 104.5,83.5C 103.359,86.6399 103.192,89.9733 104,93.5C 104.852,94.5707 105.685,95.5707 106.5,96.5C 106.833,97.1667 107.167,97.8333 107.5,98.5C 107.414,99.4959 107.748,100.329 108.5,101C 108,101.167 107.5,101.333 107,101.5C 105.594,100.586 104.094,99.9195 102.5,99.5C 101.5,99.1667 100.833,98.5 100.5,97.5C 98.7476,93.7727 98.081,89.7727 98.5,85.5C 99.5989,79.4064 102.932,75.073 108.5,72.5 Z"/></g>
<g><path style="opacity:1" fill="#f2fcfd" d="M 223.5,76.5 C 219.5,76.5 215.5,76.5 211.5,76.5C 211.19,79.7131 211.523,82.7131 212.5,85.5C 215.358,86.166 218.358,86.8326 221.5,87.5C 218.358,88.1674 215.358,88.834 212.5,89.5C 211.167,92.8333 211.167,96.1667 212.5,99.5C 215.962,100.482 219.629,100.815 223.5,100.5C 223.5,101.5 223.5,102.5 223.5,103.5C 218.167,103.5 212.833,103.5 207.5,103.5C 207.5,93.5 207.5,83.5 207.5,73.5C 212.833,73.5 218.167,73.5 223.5,73.5C 223.5,74.5 223.5,75.5 223.5,76.5 Z"/></g>
<g><path style="opacity:1" fill="#5cbcf3" d="M 73.5,72.5 C 72.1667,72.5 70.8333,72.5 69.5,72.5C 69.9628,75.221 70.6295,77.8877 71.5,80.5C 69.3926,77.9433 68.0592,74.9433 67.5,71.5C 69.7354,71.2053 71.7354,71.5386 73.5,72.5 Z"/></g>
<g><path style="opacity:1" fill="#dbf6fd" d="M 146.5,72.5 C 146.833,72.5 147.167,72.5 147.5,72.5C 151.042,72.1872 154.375,72.5206 157.5,73.5C 153.625,73.0845 149.958,73.5845 146.5,75C 150.025,75.1787 153.359,75.6787 156.5,76.5C 153.813,76.3359 151.146,76.5026 148.5,77C 147.944,77.3826 147.611,77.8826 147.5,78.5C 146.833,78.5 146.167,78.5 145.5,78.5C 145.53,77.5028 145.03,76.8361 144,76.5C 142.019,77.6502 140.186,78.9835 138.5,80.5C 139.08,78.2512 140.413,76.5846 142.5,75.5C 144.23,74.9744 145.564,73.9744 146.5,72.5 Z"/></g>
<g><path style="opacity:1" fill="#d3f5fd" d="M 251.5,73.5 C 255.578,75.9934 257.244,79.6601 256.5,84.5C 255.135,86.8598 253.135,88.5265 250.5,89.5C 247.5,89.5 244.5,89.5 241.5,89.5C 242.103,94.6186 241.436,99.2853 239.5,103.5C 239.5,93.5 239.5,83.5 239.5,73.5C 243.5,73.5 247.5,73.5 251.5,73.5 Z"/></g>
<g><path style="opacity:1" fill="#e9f9fd" d="M 73.5,72.5 C 74.1098,73.391 74.4431,74.391 74.5,75.5C 74.427,77.0269 75.0937,78.0269 76.5,78.5C 77.7539,83.1923 79.7539,87.5256 82.5,91.5C 83.5223,91.1445 84.189,90.4778 84.5,89.5C 85.6935,89.9704 86.3601,90.9704 86.5,92.5C 86.2716,94.2073 85.9383,95.874 85.5,97.5C 85.5,97.8333 85.5,98.1667 85.5,98.5C 84.7354,98.9234 83.9021,99.2568 83,99.5C 81.9231,98.5705 80.7564,97.9038 79.5,97.5C 77.882,92.9741 75.882,88.6408 73.5,84.5C 73.5,84.1667 73.5,83.8333 73.5,83.5C 73.573,81.9731 72.9063,80.9731 71.5,80.5C 70.6295,77.8877 69.9628,75.221 69.5,72.5C 70.8333,72.5 72.1667,72.5 73.5,72.5 Z"/></g>
<g><path style="opacity:1" fill="#8ccef1" d="M 156.5,76.5 C 156.833,76.5 157.167,76.5 157.5,76.5C 157.5,76.8333 157.5,77.1667 157.5,77.5C 154.098,77.3424 150.764,77.6758 147.5,78.5C 147.611,77.8826 147.944,77.3826 148.5,77C 151.146,76.5026 153.813,76.3359 156.5,76.5 Z"/></g>
<g><path style="opacity:1" fill="#a9dcfa" d="M 74.5,75.5 C 75.9063,75.9731 76.573,76.9731 76.5,78.5C 75.0937,78.0269 74.427,77.0269 74.5,75.5 Z"/></g>
<g><path style="opacity:1" fill="#d6f9fe" d="M 161.5,74.5 C 163.946,75.3921 164.612,76.8921 163.5,79C 161.305,79.4094 159.305,78.9094 157.5,77.5C 157.5,77.1667 157.5,76.8333 157.5,76.5C 158.583,76.5394 159.583,76.8728 160.5,77.5C 161.386,76.675 161.719,75.675 161.5,74.5 Z"/></g>
<g><path style="opacity:1" fill="#38b1f9" d="M 178.5,72.5 C 176.833,72.5 175.167,72.5 173.5,72.5C 173.334,80.84 173.5,89.1733 174,97.5C 174.232,98.7375 174.732,99.7375 175.5,100.5C 176.861,102.527 178.527,104.194 180.5,105.5C 179.07,105.421 177.736,105.754 176.5,106.5C 173.853,103.82 172.52,104.487 172.5,108.5C 170.856,108.286 169.356,108.62 168,109.5C 166.959,107.415 165.459,105.748 163.5,104.5C 158.853,107.466 153.853,108.133 148.5,106.5C 147.757,105.818 147.091,105.151 146.5,104.5C 147.167,104.5 147.833,104.5 148.5,104.5C 151.638,105.681 154.638,105.681 157.5,104.5C 160.719,104.224 163.385,102.891 165.5,100.5C 166.906,100.027 167.573,99.0269 167.5,97.5C 168.159,94.5448 168.492,91.5448 168.5,88.5C 164.167,88.5 159.833,88.5 155.5,88.5C 155.5,89.8333 155.5,91.1667 155.5,92.5C 158.159,92.9174 160.492,93.9174 162.5,95.5C 161.728,96.6935 160.728,97.6935 159.5,98.5C 154.77,98.7166 150.103,98.3833 145.5,97.5C 144.488,96.1283 143.488,94.795 142.5,93.5C 142.323,89.7657 142.656,86.0991 143.5,82.5C 143.733,80.9382 144.4,79.6049 145.5,78.5C 146.167,78.5 146.833,78.5 147.5,78.5C 150.764,77.6758 154.098,77.3424 157.5,77.5C 159.305,78.9094 161.305,79.4094 163.5,79C 164.612,76.8921 163.946,75.3921 161.5,74.5C 160.833,74.5 160.5,74.1667 160.5,73.5C 164.007,72.9935 167.174,73.6602 170,75.5C 170.333,73.9532 169.833,72.6199 168.5,71.5C 169.868,70.4063 171.035,70.7397 172,72.5C 174.274,71.1888 176.44,71.1888 178.5,72.5 Z"/></g>
<g><path style="opacity:1" fill="#f5fdfe" d="M 198.5,97.5 C 198.068,98.7095 197.401,99.7095 196.5,100.5C 195.448,100.649 194.448,100.483 193.5,100C 194.406,98.3005 194.739,96.4672 194.5,94.5C 194.5,94.1667 194.5,93.8333 194.5,93.5C 195.491,87.021 195.824,80.3543 195.5,73.5C 196.5,73.5 197.5,73.5 198.5,73.5C 198.5,81.5 198.5,89.5 198.5,97.5 Z"/></g>
<g><path style="opacity:1" fill="#f7fefe" d="M 178.5,95.5 C 178.317,97.9363 178.984,100.103 180.5,102C 178.811,101.866 177.144,101.366 175.5,100.5C 174.692,91.5243 174.358,82.5243 174.5,73.5C 175.5,73.5 176.5,73.5 177.5,73.5C 177.175,81.0191 177.508,88.3524 178.5,95.5 Z"/></g>
<g><path style="opacity:1" fill="#74c4f0" d="M 109.5,78.5 C 108.167,80.5 106.5,82.1667 104.5,83.5C 105.167,80.8333 106.833,79.1667 109.5,78.5 Z"/></g>
<g><path style="opacity:1" fill="#31b0fc" d="M 109.5,78.5 C 113.154,78.9422 116.821,79.2756 120.5,79.5C 120.167,82.5 121.5,83.8333 124.5,83.5C 124.5,86.8333 124.5,90.1667 124.5,93.5C 124.5,94.1667 124.5,94.8333 124.5,95.5C 123.167,96.5 121.833,97.5 120.5,98.5C 118.453,98.5111 116.453,98.8444 114.5,99.5C 112.026,97.9275 109.36,96.9275 106.5,96.5C 105.685,95.5707 104.852,94.5707 104,93.5C 103.192,89.9733 103.359,86.6399 104.5,83.5C 106.5,82.1667 108.167,80.5 109.5,78.5 Z"/></g>
<g><path style="opacity:1" fill="#65bef3" d="M 16.5,77.5 C 16.8333,77.5 17.1667,77.5 17.5,77.5C 18.4408,79.0495 19.1075,80.7162 19.5,82.5C 16.9162,81.9517 15.9162,80.285 16.5,77.5 Z"/></g>
<g><path style="opacity:1" fill="#b1eafb" d="M 35.5,79.5 C 36.9063,79.9731 37.573,80.9731 37.5,82.5C 36.0937,82.0269 35.427,81.0269 35.5,79.5 Z"/></g>
<g><path style="opacity:1" fill="#eefbfd" d="M 94.5,76.5 C 94.2964,78.6854 93.6298,80.6854 92.5,82.5C 91.1302,84.2504 90.1302,86.2504 89.5,88.5C 88.325,88.719 87.325,88.3857 86.5,87.5C 87.3094,85.9291 87.6427,84.2624 87.5,82.5C 88.3228,80.0128 89.3228,77.6794 90.5,75.5C 92.456,73.8249 93.7893,74.1582 94.5,76.5 Z"/></g>
<g><path style="opacity:1" fill="#5ebcf3" d="M 124.5,93.5 C 124.5,90.1667 124.5,86.8333 124.5,83.5C 121.5,83.8333 120.167,82.5 120.5,79.5C 116.821,79.2756 113.154,78.9422 109.5,78.5C 109.611,77.8826 109.944,77.3826 110.5,77C 119.599,75.599 124.932,79.4324 126.5,88.5C 126.444,90.6397 125.777,92.3064 124.5,93.5 Z"/></g>
<g><path style="opacity:1" fill="#bbebfd" d="M 224.5,76.5 C 224.167,76.5 223.833,76.5 223.5,76.5C 223.5,75.5 223.5,74.5 223.5,73.5C 218.167,73.5 212.833,73.5 207.5,73.5C 207.5,83.5 207.5,93.5 207.5,103.5C 212.833,103.5 218.167,103.5 223.5,103.5C 223.5,103.833 223.5,104.167 223.5,104.5C 217.833,104.5 212.167,104.5 206.5,104.5C 206.5,93.8333 206.5,83.1667 206.5,72.5C 212.5,72.5 218.5,72.5 224.5,72.5C 224.5,73.8333 224.5,75.1667 224.5,76.5 Z"/></g>
<g><path style="opacity:1" fill="#4db5f0" d="M 283.5,72.5 C 282.5,72.5 281.5,72.5 280.5,72.5C 282.049,76.7184 284.049,80.7184 286.5,84.5C 284.956,84.2969 283.622,83.6302 282.5,82.5C 280.348,79.1346 279.348,75.468 279.5,71.5C 281.099,71.2322 282.432,71.5655 283.5,72.5 Z"/></g>
<g><path style="opacity:1" fill="#56b6ef" d="M 38.5,73.5 C 37.6236,73.3691 36.9569,73.7025 36.5,74.5C 39.2484,79.6657 42.2484,84.6657 45.5,89.5C 46.117,86.6668 45.4503,84.0002 43.5,81.5C 43.3284,80.5084 43.6618,79.8417 44.5,79.5C 45.7794,81.1233 47.1128,82.79 48.5,84.5C 48.8333,83.8333 49.1667,83.1667 49.5,82.5C 47.8999,79.6319 46.5665,76.6319 45.5,73.5C 48.7644,72.6758 52.0977,72.3424 55.5,72.5C 55.7678,74.099 55.4345,75.4324 54.5,76.5C 54.5,78.1667 54.5,79.8333 54.5,81.5C 53.1667,81.5 51.8333,81.5 50.5,81.5C 50.4208,82.9305 50.7542,84.2638 51.5,85.5C 50.3112,86.4287 48.9778,86.762 47.5,86.5C 47.5,88.1667 47.5,89.8333 47.5,91.5C 46.5,91.5 45.5,91.5 44.5,91.5C 44.6633,93.8568 44.4966,96.1902 44,98.5C 43.1841,99.8228 42.0174,100.489 40.5,100.5C 40.4326,99.0413 40.7659,97.7079 41.5,96.5C 43.3769,95.3409 43.8769,93.6742 43,91.5C 41.9741,88.7613 40.4741,86.428 38.5,84.5C 38.6716,83.5084 38.3382,82.8417 37.5,82.5C 37.573,80.9731 36.9063,79.9731 35.5,79.5C 35.1075,77.7162 34.4408,76.0495 33.5,74.5C 34.9764,72.5682 36.6431,72.2348 38.5,73.5 Z"/></g>
<g><path style="opacity:1" fill="#caf2fd" d="M 44.5,73.5 C 44.8333,73.5 45.1667,73.5 45.5,73.5C 46.5665,76.6319 47.8999,79.6319 49.5,82.5C 49.1667,83.1667 48.8333,83.8333 48.5,84.5C 47.1128,82.79 45.7794,81.1233 44.5,79.5C 44.1231,77.742 43.4565,76.0754 42.5,74.5C 42.9569,73.7025 43.6236,73.3691 44.5,73.5 Z"/></g>
<g><path style="opacity:1" fill="#64bfee" d="M 44.5,73.5 C 43.6236,73.3691 42.9569,73.7025 42.5,74.5C 43.4565,76.0754 44.1231,77.742 44.5,79.5C 43.6618,79.8417 43.3284,80.5084 43.5,81.5C 42.2632,80.0351 41.2632,78.3684 40.5,76.5C 41.4345,75.4324 41.7678,74.099 41.5,72.5C 42.791,72.2627 43.791,72.596 44.5,73.5 Z"/></g>
<g><path style="opacity:1" fill="#d9f7fe" d="M 54.5,76.5 C 53.2876,77.2299 52.2876,78.2299 51.5,79.5C 49.585,77.9288 48.585,75.9288 48.5,73.5C 50.1992,73.3398 51.8659,73.5065 53.5,74C 54.2524,74.6708 54.5858,75.5041 54.5,76.5 Z"/></g>
<g><path style="opacity:1" fill="#97dcf9" d="M 71.5,80.5 C 72.9063,80.9731 73.573,81.9731 73.5,83.5C 72.0937,83.0269 71.427,82.0269 71.5,80.5 Z"/></g>
<g><path style="opacity:1" fill="#ebfafe" d="M 145.5,78.5 C 144.4,79.6049 143.733,80.9382 143.5,82.5C 142.883,82.6107 142.383,82.944 142,83.5C 141.192,87.0267 141.359,90.3601 142.5,93.5C 143.488,94.795 144.488,96.1283 145.5,97.5C 145.833,98.5 146.5,99.1667 147.5,99.5C 147.611,100.117 147.944,100.617 148.5,101C 151.833,101.333 155.167,101.667 158.5,102C 158.833,102.333 159.167,102.667 159.5,103C 158.584,103.278 157.918,103.778 157.5,104.5C 154.638,105.681 151.638,105.681 148.5,104.5C 146.544,103.508 144.544,102.508 142.5,101.5C 141.5,100.833 140.5,100.167 139.5,99.5C 137.973,96.3591 136.973,93.0258 136.5,89.5C 136.768,86.4825 137.102,83.4825 137.5,80.5C 137.833,80.5 138.167,80.5 138.5,80.5C 140.186,78.9835 142.019,77.6502 144,76.5C 145.03,76.8361 145.53,77.5028 145.5,78.5 Z"/></g>
<g><path style="opacity:1" fill="#cbf3fd" d="M 283.5,72.5 C 285.246,76.3267 287.246,79.9934 289.5,83.5C 290.244,86.8845 291.577,87.2178 293.5,84.5C 293.328,83.5084 293.662,82.8417 294.5,82.5C 295.906,82.0269 296.573,81.0269 296.5,79.5C 297.142,75.8673 299.142,73.5339 302.5,72.5C 302.296,74.6854 301.63,76.6854 300.5,78.5C 297.769,80.9464 295.769,83.9464 294.5,87.5C 293.883,87.6107 293.383,87.944 293,88.5C 292.501,93.8229 292.334,99.1563 292.5,104.5C 291.209,104.737 290.209,104.404 289.5,103.5C 289.666,98.1563 289.499,92.8229 289,87.5C 288.148,86.4293 287.315,85.4293 286.5,84.5C 284.049,80.7184 282.049,76.7184 280.5,72.5C 281.5,72.5 282.5,72.5 283.5,72.5 Z"/></g>
<g><path style="opacity:1" fill="#aedffc" d="M 296.5,79.5 C 296.573,81.0269 295.906,82.0269 294.5,82.5C 294.427,80.9731 295.094,79.9731 296.5,79.5 Z"/></g>
<g><path style="opacity:1" fill="#c9f5fe" d="M 38.5,73.5 C 39.4013,74.2905 40.0679,75.2905 40.5,76.5C 41.2632,78.3684 42.2632,80.0351 43.5,81.5C 45.4503,84.0002 46.117,86.6668 45.5,89.5C 42.2484,84.6657 39.2484,79.6657 36.5,74.5C 36.9569,73.7025 37.6236,73.3691 38.5,73.5 Z"/></g>
<g><path style="opacity:1" fill="#fbfdf9" d="M 128.5,83.5 C 129.117,83.6107 129.617,83.944 130,84.5C 130.818,87.2272 130.652,89.8938 129.5,92.5C 128.516,89.5719 128.183,86.5719 128.5,83.5 Z"/></g>
<g><path style="opacity:1" fill="#45b4f7" d="M 137.5,80.5 C 137.102,83.4825 136.768,86.4825 136.5,89.5C 136.973,93.0258 137.973,96.3591 139.5,99.5C 138.21,98.9423 137.377,97.9423 137,96.5C 136.09,100.562 133.59,103.228 129.5,104.5C 128.353,104.182 127.519,103.516 127,102.5C 125.103,104.016 122.936,104.683 120.5,104.5C 122.435,103.19 124.435,101.857 126.5,100.5C 131.272,95.444 132.772,89.444 131,82.5C 125.922,73.8802 118.422,70.5469 108.5,72.5C 108.611,71.8826 108.944,71.3826 109.5,71C 113.167,70.3333 116.833,70.3333 120.5,71C 124.052,72.2163 127.385,73.8829 130.5,76C 131.167,78 131.833,80 132.5,82C 134.044,81.5134 135.71,81.0134 137.5,80.5 Z"/></g>
<g><path style="opacity:1" fill="#8dd1f4" d="M 223.5,76.5 C 223.833,76.5 224.167,76.5 224.5,76.5C 220.702,77.4834 216.702,77.8168 212.5,77.5C 212.5,79.8333 212.5,82.1667 212.5,84.5C 216.702,84.1832 220.702,84.5166 224.5,85.5C 220.5,85.5 216.5,85.5 212.5,85.5C 211.523,82.7131 211.19,79.7131 211.5,76.5C 215.5,76.5 219.5,76.5 223.5,76.5 Z"/></g>
<g><path style="opacity:1" fill="#79c4ee" d="M 289.5,83.5 C 290.708,84.2341 292.041,84.5674 293.5,84.5C 291.577,87.2178 290.244,86.8845 289.5,83.5 Z"/></g>
<g><path style="opacity:1" fill="#7bc9f2" d="M 92.5,82.5 C 92.8337,85.491 91.8337,87.8243 89.5,89.5C 89.5,89.1667 89.5,88.8333 89.5,88.5C 90.1302,86.2504 91.1302,84.2504 92.5,82.5 Z"/></g>
<g><path style="opacity:1" fill="#4ab1f0" d="M 250.5,76.5 C 255.085,84.949 252.418,88.6156 242.5,87.5C 242.5,83.5 242.5,79.5 242.5,75.5C 245.385,75.1936 248.052,75.5269 250.5,76.5 Z"/></g>
<g><path style="opacity:1" fill="#2aaefd" d="M 250.5,76.5 C 250.5,79.5 250.5,82.5 250.5,85.5C 248.167,85.5 245.833,85.5 243.5,85.5C 243.5,82.5 243.5,79.5 243.5,76.5C 245.833,76.5 248.167,76.5 250.5,76.5 Z"/></g>
<g><path style="opacity:1" fill="#6ec0f5" d="M 19.5,82.5 C 21.1991,84.5664 22.5324,86.8997 23.5,89.5C 21.058,87.8791 19.7247,85.5458 19.5,82.5 Z"/></g>
<g><path style="opacity:1" fill="#dff8fd" d="M 38.5,84.5 C 40.4741,86.428 41.9741,88.7613 43,91.5C 43.8769,93.6742 43.3769,95.3409 41.5,96.5C 41.6602,94.8008 41.4935,93.1341 41,91.5C 40,90.1667 39,90.1667 38,91.5C 37.4436,89.1152 37.6103,86.7819 38.5,84.5 Z"/></g>
<g><path style="opacity:1" fill="#c5edfd" d="M 199.5,72.5 C 199.826,81.0168 199.493,89.3501 198.5,97.5C 198.5,89.5 198.5,81.5 198.5,73.5C 197.5,73.5 196.5,73.5 195.5,73.5C 195.824,80.3543 195.491,87.021 194.5,93.5C 194.5,86.5 194.5,79.5 194.5,72.5C 196.167,72.5 197.833,72.5 199.5,72.5 Z"/></g>
<g><path style="opacity:1" fill="#d1f2fc" d="M 87.5,82.5 C 87.6427,84.2624 87.3094,85.9291 86.5,87.5C 87.325,88.3857 88.325,88.719 89.5,88.5C 89.5,88.8333 89.5,89.1667 89.5,89.5C 88.738,92.4529 87.4047,95.1196 85.5,97.5C 85.9383,95.874 86.2716,94.2073 86.5,92.5C 86.3601,90.9704 85.6935,89.9704 84.5,89.5C 84.9348,86.8427 85.9348,84.5093 87.5,82.5 Z"/></g>
<g><path style="opacity:1" fill="#8bd4f4" d="M 143.5,82.5 C 142.656,86.0991 142.323,89.7657 142.5,93.5C 141.359,90.3601 141.192,87.0267 142,83.5C 142.383,82.944 142.883,82.6107 143.5,82.5 Z"/></g>
<g><path style="opacity:1" fill="#d5f4fd" d="M 167.5,97.5 C 166.094,97.9731 165.427,98.9731 165.5,100.5C 163.385,102.891 160.719,104.224 157.5,104.5C 157.918,103.778 158.584,103.278 159.5,103C 159.167,102.667 158.833,102.333 158.5,102C 155.167,101.667 151.833,101.333 148.5,101C 147.944,100.617 147.611,100.117 147.5,99.5C 151.794,101.126 155.794,100.792 159.5,98.5C 160.728,97.6935 161.728,96.6935 162.5,95.5C 163.338,95.1583 163.672,94.4916 163.5,93.5C 164.315,94.4293 165.148,95.4293 166,96.5C 166.497,94.1902 166.663,91.8568 166.5,89.5C 163.102,89.1796 159.768,89.513 156.5,90.5C 158.969,91.1681 161.302,91.8347 163.5,92.5C 160.833,92.5 158.167,92.5 155.5,92.5C 155.5,91.1667 155.5,89.8333 155.5,88.5C 159.833,88.5 164.167,88.5 168.5,88.5C 168.492,91.5448 168.159,94.5448 167.5,97.5 Z"/></g>
<g><path style="opacity:1" fill="#d7f7fe" d="M 212.5,85.5 C 216.5,85.5 220.5,85.5 224.5,85.5C 224.5,86.8333 224.5,88.1667 224.5,89.5C 220.5,89.5 216.5,89.5 212.5,89.5C 215.358,88.834 218.358,88.1674 221.5,87.5C 218.358,86.8326 215.358,86.166 212.5,85.5 Z"/></g>
<g><path style="opacity:1" fill="#f8fdfe" d="M 163.5,93.5 C 163.5,93.1667 163.5,92.8333 163.5,92.5C 161.302,91.8347 158.969,91.1681 156.5,90.5C 159.768,89.513 163.102,89.1796 166.5,89.5C 166.663,91.8568 166.497,94.1902 166,96.5C 165.148,95.4293 164.315,94.4293 163.5,93.5 Z"/></g>
<g><path style="opacity:1" fill="#c8f3fd" d="M 178.5,72.5 C 178.5,80.1667 178.5,87.8333 178.5,95.5C 177.508,88.3524 177.175,81.0191 177.5,73.5C 176.5,73.5 175.5,73.5 174.5,73.5C 174.358,82.5243 174.692,91.5243 175.5,100.5C 174.732,99.7375 174.232,98.7375 174,97.5C 173.5,89.1733 173.334,80.84 173.5,72.5C 175.167,72.5 176.833,72.5 178.5,72.5 Z"/></g>
<g><path style="opacity:1" fill="#41b3f3" d="M 256.5,84.5 C 257.777,85.9846 259.11,87.9846 260.5,90.5C 260.34,92.153 259.674,93.4863 258.5,94.5C 256.811,93.6963 255.145,92.6963 253.5,91.5C 250.255,91.9737 246.921,91.9737 243.5,91.5C 243.818,96.0323 243.485,100.366 242.5,104.5C 242.5,99.8333 242.5,95.1667 242.5,90.5C 245.385,90.8064 248.052,90.4731 250.5,89.5C 253.135,88.5265 255.135,86.8598 256.5,84.5 Z"/></g>
<g><path style="opacity:1" fill="#77c7ed" d="M 155.5,92.5 C 158.167,92.5 160.833,92.5 163.5,92.5C 163.5,92.8333 163.5,93.1667 163.5,93.5C 163.672,94.4916 163.338,95.1583 162.5,95.5C 160.492,93.9174 158.159,92.9174 155.5,92.5 Z"/></g>
<g><path style="opacity:1" fill="#48b4f7" d="M 178.5,72.5 C 179.26,80.355 179.927,88.355 180.5,96.5C 184.21,96.7753 187.043,95.442 189,92.5C 189.939,95.0151 191.439,95.6817 193.5,94.5C 192.929,98.7221 190.429,100.722 186,100.5C 182.556,100.218 180.056,98.5518 178.5,95.5C 178.5,87.8333 178.5,80.1667 178.5,72.5 Z"/></g>
<g><path style="opacity:1" fill="#d0f5fe" d="M 270.5,75.5 C 273.056,82.7793 276.056,89.7793 279.5,96.5C 280.167,99.1667 280.833,101.833 281.5,104.5C 280.325,104.719 279.325,104.386 278.5,103.5C 277.484,100.718 276.484,98.0513 275.5,95.5C 273.603,94.1952 271.269,93.5286 268.5,93.5C 266.167,93.6667 263.833,93.8333 261.5,94C 260.748,94.6708 260.414,95.5041 260.5,96.5C 260.22,99.7265 258.887,102.393 256.5,104.5C 256.167,104.167 255.833,103.833 255.5,103.5C 256.659,100.519 257.659,97.5186 258.5,94.5C 259.674,93.4863 260.34,92.153 260.5,90.5C 262.694,85.9204 264.694,81.2537 266.5,76.5C 267.315,75.5707 268.148,74.5707 269,73.5C 269.278,74.4158 269.778,75.0825 270.5,75.5 Z"/></g>
<g><path style="opacity:1" fill="#7fcaf4" d="M 272.5,87.5 C 273.434,88.5676 273.768,89.901 273.5,91.5C 270.167,91.5 266.833,91.5 263.5,91.5C 263.263,90.209 263.596,89.209 264.5,88.5C 264.328,89.4916 264.662,90.1583 265.5,90.5C 267.833,90.5 270.167,90.5 272.5,90.5C 272.5,89.5 272.5,88.5 272.5,87.5 Z"/></g>
<g><path style="opacity:1" fill="#54b7f3" d="M 272.5,87.5 C 271.173,86.1999 269.84,84.8665 268.5,83.5C 267.645,85.955 266.645,88.2883 265.5,90.5C 264.662,90.1583 264.328,89.4916 264.5,88.5C 266.627,75.9616 269.293,75.6282 272.5,87.5 Z"/></g>
<g><path style="opacity:1" fill="#31aef8" d="M 272.5,87.5 C 272.5,88.5 272.5,89.5 272.5,90.5C 270.167,90.5 267.833,90.5 265.5,90.5C 266.645,88.2883 267.645,85.955 268.5,83.5C 269.84,84.8665 271.173,86.1999 272.5,87.5 Z"/></g>
<g><path style="opacity:1" fill="#79c6f2" d="M 212.5,89.5 C 216.5,89.5 220.5,89.5 224.5,89.5C 220.702,90.4834 216.702,90.8168 212.5,90.5C 212.5,93.1667 212.5,95.8333 212.5,98.5C 212.5,98.8333 212.5,99.1667 212.5,99.5C 211.167,96.1667 211.167,92.8333 212.5,89.5 Z"/></g>
<g><path style="opacity:1" fill="#aee3fb" d="M 250.5,89.5 C 248.052,90.4731 245.385,90.8064 242.5,90.5C 242.5,95.1667 242.5,99.8333 242.5,104.5C 241.209,104.737 240.209,104.404 239.5,103.5C 241.436,99.2853 242.103,94.6186 241.5,89.5C 244.5,89.5 247.5,89.5 250.5,89.5 Z"/></g>
<g><path style="opacity:1" fill="#7acaf5" d="M 275.5,95.5 C 274.833,95.1667 274.167,94.8333 273.5,94.5C 268.86,93.9749 264.527,94.6416 260.5,96.5C 260.414,95.5041 260.748,94.6708 261.5,94C 263.833,93.8333 266.167,93.6667 268.5,93.5C 271.269,93.5286 273.603,94.1952 275.5,95.5 Z"/></g>
<g><path style="opacity:1" fill="#91d3f6" d="M 294.5,87.5 C 293.6,92.772 293.267,98.1053 293.5,103.5C 293.5,104.167 293.167,104.5 292.5,104.5C 292.334,99.1563 292.501,93.8229 293,88.5C 293.383,87.944 293.883,87.6107 294.5,87.5 Z"/></g>
<g><path style="opacity:1" fill="#41b2f4" d="M 300.5,78.5 C 299.328,80.8439 299.328,83.1772 300.5,85.5C 299.609,86.5896 298.609,86.5896 297.5,85.5C 295.508,91.495 294.175,97.495 293.5,103.5C 293.267,98.1053 293.6,92.772 294.5,87.5C 295.769,83.9464 297.769,80.9464 300.5,78.5 Z"/></g>
<g><path style="opacity:1" fill="#76c7f5" d="M 98.5,85.5 C 98.081,89.7727 98.7476,93.7727 100.5,97.5C 99.8333,97.1667 99.1667,96.8333 98.5,96.5C 97.8902,95.609 97.5569,94.609 97.5,93.5C 97.1936,90.6146 97.5269,87.9479 98.5,85.5 Z"/></g>
<g><path style="opacity:1" fill="#75c7f2" d="M 251.5,72.5 C 251.5,72.8333 251.5,73.1667 251.5,73.5C 247.5,73.5 243.5,73.5 239.5,73.5C 239.5,83.5 239.5,93.5 239.5,103.5C 240.209,104.404 241.209,104.737 242.5,104.5C 241.432,105.434 240.099,105.768 238.5,105.5C 238.5,94.5 238.5,83.5 238.5,72.5C 242.833,72.5 247.167,72.5 251.5,72.5 Z"/></g>
<g><path style="opacity:1" fill="#76c9f5" d="M 23.5,89.5 C 25.942,91.1209 27.2753,93.4542 27.5,96.5C 27.1667,96.5 26.8333,96.5 26.5,96.5C 25.6876,94.0554 24.6876,91.7221 23.5,89.5 Z"/></g>
<g><path style="opacity:1" fill="#48b6f3" d="M 89.5,89.5 C 89.1601,92.1441 89.8267,94.4775 91.5,96.5C 88.7993,96.9746 86.7993,98.308 85.5,100.5C 85.5,99.8333 85.5,99.1667 85.5,98.5C 85.5,98.1667 85.5,97.8333 85.5,97.5C 87.4047,95.1196 88.738,92.4529 89.5,89.5 Z"/></g>
<g><path style="opacity:1" fill="#6bc0ee" d="M 73.5,84.5 C 75.882,88.6408 77.882,92.9741 79.5,97.5C 80.1098,98.391 80.4431,99.391 80.5,100.5C 78.8267,99.657 77.66,98.3237 77,96.5C 75.905,92.3917 74.7383,88.3917 73.5,84.5 Z"/></g>
<g><path style="opacity:1" fill="#3eb1f0" d="M 224.5,104.5 C 224.5,102.833 224.5,101.167 224.5,99.5C 220.5,99.5 216.5,99.5 212.5,99.5C 212.5,99.1667 212.5,98.8333 212.5,98.5C 217.15,97.2805 221.817,97.2805 226.5,98.5C 225.95,100.657 225.283,102.657 224.5,104.5 Z"/></g>
<g><path style="opacity:1" fill="#51b4ef" d="M 145.5,97.5 C 150.103,98.3833 154.77,98.7166 159.5,98.5C 155.794,100.792 151.794,101.126 147.5,99.5C 146.5,99.1667 145.833,98.5 145.5,97.5 Z"/></g>
<g><path style="opacity:1" fill="#5bbbf3" d="M 106.5,96.5 C 109.36,96.9275 112.026,97.9275 114.5,99.5C 116.453,98.8444 118.453,98.5111 120.5,98.5C 116.245,101.146 111.912,101.146 107.5,98.5C 107.167,97.8333 106.833,97.1667 106.5,96.5 Z"/></g>
<g><path style="opacity:1" fill="#76c5ef" d="M 167.5,97.5 C 167.573,99.0269 166.906,100.027 165.5,100.5C 165.427,98.9731 166.094,97.9731 167.5,97.5 Z"/></g>
<g><path style="opacity:1" fill="#52b7f1" d="M 199.5,72.5 C 200.822,81.6749 200.822,91.0082 199.5,100.5C 197.679,101.728 196.679,103.394 196.5,105.5C 194.173,105.247 192.173,105.914 190.5,107.5C 188.018,106.933 185.684,106.266 183.5,105.5C 189.041,106.624 193.374,104.958 196.5,100.5C 197.401,99.7095 198.068,98.7095 198.5,97.5C 199.493,89.3501 199.826,81.0168 199.5,72.5 Z"/></g>
<g><path style="opacity:1" fill="#9de0f8" d="M 212.5,99.5 C 216.5,99.5 220.5,99.5 224.5,99.5C 224.5,101.167 224.5,102.833 224.5,104.5C 224.167,104.5 223.833,104.5 223.5,104.5C 223.5,104.167 223.5,103.833 223.5,103.5C 223.5,102.5 223.5,101.5 223.5,100.5C 219.629,100.815 215.962,100.482 212.5,99.5 Z"/></g>
<g><path style="opacity:1" fill="#d7f7fe" d="M 79.5,97.5 C 80.7564,97.9038 81.9231,98.5705 83,99.5C 83.9021,99.2568 84.7354,98.9234 85.5,98.5C 85.5,99.1667 85.5,99.8333 85.5,100.5C 84.6618,100.842 84.3284,101.508 84.5,102.5C 83.8501,102.804 83.1835,103.137 82.5,103.5C 81.8243,102.398 81.1577,101.398 80.5,100.5C 80.4431,99.391 80.1098,98.391 79.5,97.5 Z"/></g>
<g><path style="opacity:1" fill="#cef1fc" d="M 124.5,95.5 C 124.141,97.371 123.141,98.871 121.5,100C 117.389,100.839 113.389,101.839 109.5,103C 113.06,104.237 116.727,104.737 120.5,104.5C 117.038,105.482 113.371,105.815 109.5,105.5C 106.661,104.194 104.328,102.194 102.5,99.5C 104.094,99.9195 105.594,100.586 107,101.5C 107.5,101.333 108,101.167 108.5,101C 107.748,100.329 107.414,99.4959 107.5,98.5C 111.912,101.146 116.245,101.146 120.5,98.5C 121.833,97.5 123.167,96.5 124.5,95.5 Z"/></g>
<g><path style="opacity:1" fill="#daf6fd" d="M 193.5,94.5 C 193.833,94.5 194.167,94.5 194.5,94.5C 194.739,96.4672 194.406,98.3005 193.5,100C 194.448,100.483 195.448,100.649 196.5,100.5C 193.374,104.958 189.041,106.624 183.5,105.5C 182.5,105.5 181.5,105.5 180.5,105.5C 178.527,104.194 176.861,102.527 175.5,100.5C 177.144,101.366 178.811,101.866 180.5,102C 178.984,100.103 178.317,97.9363 178.5,95.5C 180.056,98.5518 182.556,100.218 186,100.5C 190.429,100.722 192.929,98.7221 193.5,94.5 Z"/></g>
<g><path style="opacity:1" fill="#e4f9fe" d="M 41.5,96.5 C 40.7659,97.7079 40.4326,99.0413 40.5,100.5C 38.7497,101.659 37.7497,103.326 37.5,105.5C 33.8913,106.207 31.5579,104.54 30.5,100.5C 32.0031,101.682 33.6698,102.182 35.5,102C 37.1339,99.6953 39.1339,97.862 41.5,96.5 Z"/></g>
<g><path style="opacity:1" fill="#36b2f9" d="M 286.5,84.5 C 287.315,85.4293 288.148,86.4293 289,87.5C 289.499,92.8229 289.666,98.1563 289.5,103.5C 288.778,103.082 288.278,102.416 288,101.5C 286.47,102.92 284.637,103.92 282.5,104.5C 282.162,108.162 280.995,108.829 279,106.5C 277.512,108.82 275.679,108.987 273.5,107C 273.194,102.792 273.194,98.6258 273.5,94.5C 274.167,94.8333 274.833,95.1667 275.5,95.5C 276.484,98.0513 277.484,100.718 278.5,103.5C 279.325,104.386 280.325,104.719 281.5,104.5C 280.833,101.833 280.167,99.1667 279.5,96.5C 281.371,96.8588 282.871,97.8588 284,99.5C 285.725,94.4158 286.558,89.4158 286.5,84.5 Z"/></g>
<g><path style="opacity:1" fill="#b7e7fb" d="M 142.5,101.5 C 144.544,102.508 146.544,103.508 148.5,104.5C 147.833,104.5 147.167,104.5 146.5,104.5C 144.596,104.262 143.262,103.262 142.5,101.5 Z"/></g>
<g><path style="opacity:1" fill="#77caf2" d="M 80.5,100.5 C 81.1577,101.398 81.8243,102.398 82.5,103.5C 83.1835,103.137 83.8501,102.804 84.5,102.5C 84.3155,105.173 83.1489,105.84 81,104.5C 80.51,103.207 80.3433,101.873 80.5,100.5 Z"/></g>
<g><path style="opacity:1" fill="#3bb4f8" d="M 26.5,96.5 C 26.8333,96.5 27.1667,96.5 27.5,96.5C 28.4884,97.795 29.4884,99.1283 30.5,100.5C 31.5579,104.54 33.8913,106.207 37.5,105.5C 34.1731,107.358 30.5064,108.691 26.5,109.5C 26.9423,105.269 26.9423,100.936 26.5,96.5 Z"/></g>
<g><path style="opacity:1" fill="#3bb3f6" d="M 98.5,96.5 C 99.1667,96.8333 99.8333,97.1667 100.5,97.5C 100.833,98.5 101.5,99.1667 102.5,99.5C 104.328,102.194 106.661,104.194 109.5,105.5C 107.4,105.477 105.567,106.144 104,107.5C 102.274,106.352 102.441,105.185 104.5,104C 103.333,103.5 102.5,102.667 102,101.5C 101.667,102.167 101.333,102.833 101,103.5C 100.616,100.94 99.7829,98.6064 98.5,96.5 Z"/></g>
</svg>
