<svg id="Capa_1" enable-background="new 0 0 512 512" height="512" viewBox="0 0 512 512" width="512" xmlns="http://www.w3.org/2000/svg"><g><path d="m510.462 265.181-62.117-231.823c-6.422-23.967-31.145-38.242-55.113-31.819l-328.415 87.998c-23.968 6.422-38.242 31.146-31.82 55.113l10.021 37.4c-23.897 1.042-43.018 20.802-43.018 44.95v240c0 24.813 20.187 45 45 45h340c24.813 0 45-20.187 45-45v-133.672l48.642-13.033c23.968-6.424 38.242-31.147 31.82-55.114zm-74.272-161.273 7.765 28.978-183.297 49.114h-115.911zm-363.608 14.607 328.415-87.999c7.99-2.141 16.23 2.617 18.371 10.607l9.059 33.807-357.394 95.763-9.059-33.807c-2.14-7.989 2.618-16.23 10.608-18.371zm327.418 348.485c0 8.271-6.729 15-15 15h-340c-8.271 0-15-6.729-15-15v-240c0-8.271 6.729-15 15-15h340c8.271 0 15 6.729 15 15zm70.877-175.683-40.877 10.953v-75.27c0-24.813-20.187-45-45-45h-8.431l75.15-20.136 29.764 111.082c2.142 7.988-2.617 16.23-10.606 18.371z"/><path d="m75 332h100c8.284 0 15-6.716 15-15v-60c0-8.284-6.716-15-15-15h-100c-8.284 0-15 6.716-15 15v60c0 8.284 6.716 15 15 15zm15-60h70v30h-70z"/><path d="m355 242h-50c-8.284 0-15 6.716-15 15s6.716 15 15 15h50c8.284 0 15-6.716 15-15s-6.716-15-15-15z"/><path d="m355 302h-50c-8.284 0-15 6.716-15 15s6.716 15 15 15h50c8.284 0 15-6.716 15-15s-6.716-15-15-15z"/><path d="m175 422h-100c-8.284 0-15 6.716-15 15s6.716 15 15 15h100c8.284 0 15-6.716 15-15s-6.716-15-15-15z"/><path d="m75 392h30c8.284 0 15-6.716 15-15s-6.716-15-15-15h-30c-8.284 0-15 6.716-15 15s6.716 15 15 15z"/><path d="m195 362h-30c-8.284 0-15 6.716-15 15s6.716 15 15 15h30c8.284 0 15-6.716 15-15s-6.716-15-15-15z"/><path d="m285 362h-30c-8.284 0-15 6.716-15 15s6.716 15 15 15h30c8.284 0 15-6.716 15-15s-6.716-15-15-15z"/></g></svg>