<svg id="Capa_1" enable-background="new 0 0 506.749 506.749" height="512" viewBox="0 0 506.749 506.749" width="512" xmlns="http://www.w3.org/2000/svg"><g><g><g><g><path d="m444.941 173.738h-35.863c-3.586 0-6.474-2.904-6.474-6.474v-57.144c0-3.586 2.904-6.474 6.474-6.474s6.474 2.904 6.474 6.474v50.669h29.389c3.586 0 6.474 2.904 6.474 6.474s-2.888 6.475-6.474 6.475z"/></g></g><g><g><path d="m409.728 264.189c-53.493 0-97.021-43.528-97.021-97.021s43.528-97.021 97.021-97.021 97.021 43.512 97.021 97.021-43.528 97.021-97.021 97.021zm0-181.077c-46.352 0-84.056 37.704-84.056 84.056s37.704 84.056 84.056 84.056 84.056-37.704 84.056-84.056-37.719-84.056-84.056-84.056z"/></g></g><g><g><path d="m392.987 436.602h-370.406c-12.441 0-22.565-10.124-22.565-22.565v-230.683c0-12.441 10.124-22.565 22.565-22.565h295.902c3.586 0 6.474 2.904 6.474 6.474s-2.904 6.474-6.474 6.474h-295.902c-5.3 0-9.616 4.316-9.616 9.616v230.666c0 5.3 4.316 9.616 9.616 9.616h370.406c5.3 0 9.616-4.316 9.616-9.616v-156.13c0-3.586 2.904-6.474 6.474-6.474s6.474 2.904 6.474 6.474v156.132c.001 12.456-10.123 22.581-22.564 22.581z"/></g></g><g><g><path d="m357.251 248.066h-350.777c-3.586 0-6.474-2.904-6.474-6.474s2.904-6.474 6.474-6.474h350.776c3.586 0 6.474 2.904 6.474 6.474s-2.887 6.474-6.473 6.474z"/></g></g><g><g><path d="m219.273 327.679h-164.082c-3.586 0-6.474-2.904-6.474-6.474v-33.261c0-3.586 2.904-6.474 6.474-6.474h164.082c3.586 0 6.474 2.904 6.474 6.474v33.261c0 3.57-2.904 6.474-6.474 6.474zm-157.607-12.964h151.117v-20.296h-151.117z"/></g></g><g><g><path d="m356.679 400.977h-75.582c-11.568 0-20.978-9.41-20.978-20.978v-31.753c0-11.568 9.41-20.978 20.978-20.978h75.582c11.568 0 20.978 9.41 20.978 20.978v31.753c-.015 11.567-9.425 20.978-20.978 20.978zm-75.582-60.746c-4.427 0-8.014 3.602-8.014 8.014v31.753c0 4.427 3.602 8.014 8.014 8.014h75.582c4.427 0 8.014-3.602 8.014-8.014v-31.753c0-4.427-3.602-8.014-8.014-8.014z"/></g></g></g></g></svg>