<svg id="Capa_1" enable-background="new 0 0 512 512" height="512" viewBox="0 0 512 512" width="512" xmlns="http://www.w3.org/2000/svg"><g><g><path clip-rule="evenodd" d="m364.816 199.134-39.62-69.9c-22.317-41.441-62.758-39.57-104.616-44.559-46.247-5.527-49.787-11.253-92.325-33.873l-43.642 82.145c16.341 8.702 25.828 16.242 34.098 29.678 19.711 31.974 37.78 32.541 58.907 45.721l65.59 40.902c1.784 1.105 3.483 2.098 5.154 2.976 9.232 4.79 16.907 5.442 22.317-4.734 5.664-10.686 1.586-31.69-8.978-46.09-1.274-1.729-2.634-3.373-4.106-4.875l-36.307-37.699c-8.355-9.836-2.69-15.987 11.158-18.311 37.1-6.208 45.681 9.893 62.164 38.21 16.313-5.017 34.551-3.798 50.835 4.847 7.59 4.054 14.104 9.383 19.371 15.562z" fill="#ffdcd5" fill-rule="evenodd"/></g><g><path clip-rule="evenodd" d="m84.613 132.947 43.642-82.145.708-1.361c3.908-7.341 1.105-16.582-6.259-20.465l-32.285-17.205c-7.363-3.912-16.568-1.105-20.476 6.264l-49.674 93.512c-3.908 7.341-1.104 16.554 6.259 20.465l32.285 17.206c7.363 3.912 16.568 1.077 20.476-6.264z" fill="#ff9eb1" fill-rule="evenodd"/></g><g><path clip-rule="evenodd" d="m372.944 273.654c13.197-24.859 9.091-54.338-8.128-74.52-5.268-6.179-11.781-11.508-19.371-15.562-16.284-8.645-34.523-9.864-50.835-4.847-12.773 3.94-24.356 11.678-32.908 22.676 10.564 14.399 14.642 35.403 8.978 46.09-5.409 10.176-13.084 9.524-22.317 4.734 2.351 15.675 10.252 30.358 22.77 40.959h86.123c6.229-5.3 11.61-11.848 15.688-19.53z" fill="#ffda8f" fill-rule="evenodd"/></g><g><path clip-rule="evenodd" d="m493.505 352.454v-59.27h-136.25-86.123-125.686v59.27z" fill="#fff" fill-rule="evenodd"/></g><g><path clip-rule="evenodd" d="m493.505 480.491v-128.037h-348.059v128.036c0 11.82 9.686 21.514 21.495 21.514h305.069c11.809.001 21.495-9.693 21.495-21.513zm-269.498-78.772h190.937v50.993h-190.937z" fill="#a0c8ff" fill-rule="evenodd"/></g><g><path clip-rule="evenodd" d="m224.007 401.719h190.937v50.993h-190.937z" fill="#ffda8f" fill-rule="evenodd"/></g><g><path d="m493.5 283.184h-114.549c.99-1.578 1.943-3.184 2.822-4.841 14.947-28.152 10.5-61.544-8.612-84.76l-39.216-69.185c-21.955-40.663-59.702-44.376-96.209-47.967-5.234-.515-10.647-1.047-15.97-1.682-36.919-4.413-44.124-8.367-70.934-23.077-3.167-1.738-6.598-3.62-10.359-5.657.538-3.655.259-7.419-.862-11.066-1.977-6.432-6.324-11.693-12.202-14.794l-32.296-17.21c-5.919-3.145-12.72-3.797-19.147-1.831-6.436 1.967-11.711 6.314-14.851 12.234l-49.668 93.502c-3.146 5.911-3.798 12.707-1.834 19.138 1.965 6.435 6.308 11.712 12.229 14.857l32.285 17.205c3.746 1.99 7.772 2.933 11.746 2.933 9.004-.001 17.731-4.846 22.252-13.337l.48-.904c10.191 6.322 16.16 12.298 21.597 21.132 15.985 25.93 31.612 33.483 46.725 40.786 5.256 2.54 10.221 4.94 15.402 8.172l65.598 40.907c.484.301.976.601 1.471.899 1.902 8.758 5.294 17.056 9.999 24.545h-103.949c-5.523 0-10 4.477-10 10v187.303c0 17.377 14.128 31.514 31.495 31.514h305.063c17.366 0 31.494-14.137 31.494-31.514v-187.302c0-5.523-4.477-10-10-10zm-129.39-14.219c-2.821 5.313-6.427 10.077-10.725 14.219h-78.396c-5.306-5.098-9.546-11.163-12.503-17.851.805-.118 1.611-.274 2.418-.491 6.099-1.641 11.013-5.9 14.605-12.658 6.744-12.69 4.038-33.285-5.302-49.836 17.367-17.443 44.29-21.777 66.532-9.951 27.513 14.672 37.997 49.019 23.371 76.568zm-102.286-82.461-33.094-34.364c-.094-.114-.182-.224-.264-.328 1.163-.45 2.955-.982 5.631-1.432 26.239-4.388 33.784 2.995 46.002 23.371-6.592 3.283-12.755 7.555-18.275 12.753zm-191.358-48.248c-1.311 2.463-4.497 3.441-6.946 2.139l-32.285-17.205c-.004-.002-.008-.004-.012-.006-1.617-.859-2.25-2.271-2.483-3.036-.234-.765-.498-2.288.365-3.907l49.676-93.516c.858-1.618 2.267-2.251 3.03-2.484.366-.111.905-.23 1.544-.23.7 0 1.52.142 2.364.59l32.323 17.225c1.591.839 2.22 2.239 2.453 2.998.237.77.505 2.304-.361 3.931zm178.034 102.508-65.588-40.901c-6.092-3.801-11.782-6.55-17.283-9.209-14.237-6.881-25.482-12.315-38.399-33.268-8.074-13.119-17.438-21.213-29.219-28.35l34.352-64.668c3.172 1.723 6.113 3.336 8.851 4.838 27.226 14.939 37.414 20.529 78.184 25.402 5.531.659 11.048 1.202 16.383 1.727 35.596 3.501 63.714 6.267 80.61 37.643.035.064.069.127.105.19l19.76 34.861c-12.124-3.67-24.752-4.209-36.803-1.847-14.587-24.797-28.082-43.314-68.66-36.526-12.165 2.042-19.708 6.84-22.419 14.262-1.648 4.514-2.068 11.715 5.295 20.384.135.159.274.313.419.463l36.312 37.706c11.515 11.934 15.166 32.335 11.45 39.327-1.091 2.053-1.933 2.675-2.141 2.731-.416.111-2.899.405-11.209-4.765zm223.505 251.236h-305.062c-6.338 0-11.495-5.165-11.495-11.514v-118.034h54.088c5.523 0 10-4.477 10-10s-4.477-10-10-10h-54.088v-39.269h328.052v39.269h-184.247c-5.523 0-10 4.477-10 10s4.477 10 10 10h184.247v118.034c0 6.349-5.156 11.514-11.495 11.514z"/><path d="m414.944 391.719h-190.937c-5.523 0-10 4.477-10 10v50.994c0 5.523 4.477 10 10 10h190.937c5.523 0 10-4.477 10-10v-50.994c0-5.523-4.477-10-10-10zm-10 50.994h-170.937v-30.994h170.937z"/><path d="m254.394 362.454h.057c5.523 0 9.972-4.477 9.972-10s-4.505-10-10.028-10-10 4.477-10 10 4.476 10 9.999 10z"/></g></g></svg>