<svg height="512" viewBox="0 0 128 128" width="512" xmlns="http://www.w3.org/2000/svg"><g><path d="m122.867 43.353c-18.567-19.142-15.141-16.771-17.5-17.594h-36.115l-13.725-14.416a1.833 1.833 0 0 0 -1.267-.543h-42.9a6.758 6.758 0 0 0 -6.75 6.75v77.94a6.758 6.758 0 0 0 6.75 6.75h44.36v8.21a6.758 6.758 0 0 0 6.75 6.75h54.17a6.758 6.758 0 0 0 6.75-6.75v-65.85a1.834 1.834 0 0 0 -.523-1.247zm-15.747-11.463 10.434 10.96h-10.434zm-28.34 42.2c-4.7 0-14.8 0-19.56 0v-5.22h19.56a1.75 1.75 0 0 0 1.75-1.75v-5.537l12.8 9.887-12.8 9.893v-5.523a1.75 1.75 0 0 0 -1.75-1.75zm-29.557-20.185h19.557v5.23h-19.557a1.749 1.749 0 0 0 -1.75 1.75v5.524l-12.8-9.894 12.8-9.887v5.527a1.749 1.749 0 0 0 1.75 1.75zm17.222-26.015h-10.435v-10.963zm-58.335 67.6v-77.94a3.254 3.254 0 0 1 3.25-3.25h41.15v15.34a1.75 1.75 0 0 0 1.75 1.75h14.52v19.015h-17.807v-7.34a1.762 1.762 0 0 0 -2.82-1.384l-17.41 13.449a1.76 1.76 0 0 0 0 2.769l17.409 13.46a1.741 1.741 0 0 0 1.071.367 1.761 1.761 0 0 0 1.75-1.75v-7.341h17.807v2.735h-11.31a1.75 1.75 0 0 0 -1.75 1.75v8.72a1.75 1.75 0 0 0 1.75 1.75h11.31v17.9a3.254 3.254 0 0 1 -3.25 3.25h-54.17a3.254 3.254 0 0 1 -3.25-3.25zm111.78 14.96a3.254 3.254 0 0 1 -3.25 3.25h-54.17a3.254 3.254 0 0 1 -3.25-3.25v-8.21h6.31a6.758 6.758 0 0 0 6.75-6.75v-17.9h4.75v7.34a1.75 1.75 0 0 0 .979 1.571 1.814 1.814 0 0 0 1.842-.187l17.409-13.46a1.762 1.762 0 0 0 0-2.769l-17.41-13.45a1.75 1.75 0 0 0 -2.82 1.385v7.35h-4.75c0-2.849.006-10.278 0-13.215-.01-.031 0-22.481 0-22.516a3.432 3.432 0 0 0 -.042-.379h31.379v15.34a1.75 1.75 0 0 0 1.753 1.75h14.52z"/><path d="m92.607 58.024a1.75 1.75 0 0 0 1.75 1.75h16.415a1.75 1.75 0 0 0 0-3.5h-16.415a1.751 1.751 0 0 0 -1.75 1.75z"/><path d="m110.772 69.729h-8.207a1.75 1.75 0 0 0 0 3.5h8.207a1.75 1.75 0 0 0 0-3.5z"/><path d="m110.772 83.185h-16.415a1.75 1.75 0 0 0 0 3.5h16.415a1.75 1.75 0 0 0 0-3.5z"/><path d="m17.227 44.815h16.416a1.75 1.75 0 0 0 0-3.5h-16.416a1.75 1.75 0 0 0 0 3.5z"/><path d="m17.227 58.27h8.208a1.75 1.75 0 0 0 0-3.5h-8.208a1.75 1.75 0 0 0 0 3.5z"/><path d="m33.643 68.226h-16.416a1.75 1.75 0 0 0 0 3.5h16.416a1.75 1.75 0 0 0 0-3.5z"/></g></svg>